<?xml version="1.0" encoding="utf-8"?>
<!-- Generator: Adobe Illustrator 27.0.1, SVG Export Plug-In . SVG Version: 6.00 Build 0)  -->
<svg version="1.1" id="Capa_1" xmlns="http://www.w3.org/2000/svg" xmlns:xlink="http://www.w3.org/1999/xlink" x="0px" y="0px"
	 viewBox="0 0 150 150" style="enable-background:new 0 0 150 150;" xml:space="preserve">
<style type="text/css">
	.st0{display:none;}
	.st1{display:inline;}
	.st2{fill:none;stroke:#000000;stroke-width:16;stroke-linecap:round;stroke-linejoin:round;stroke-miterlimit:10;}
	.st3{fill:#9CA3AF;}
</style>
<g id="layer" class="st0">
	<g class="st1">
		<path class="st2" d="M125,178.5c0,0-2.4-32.6,5.4-38.4c23.4-17.5,100.8-8.8,115.9,16.1c12.7,20.9,4.4,72.5-12.2,86.9
			c-7,6.1-36.1,8.3-36.1,8.3c-78.7-1.2-150.3-31.8-204-81.3l-14.8-14.7C-70.5,102-101.3,30.9-102.5-47.4c0,0,2.3-29,8.4-35.9
			C-79.6-99.8-27.7-108-6.7-95.4c25.1,15,33.9,92,16.2,115.3c-5.9,7.7-38.6,5.4-38.6,5.4"/>
		<path class="st2" d="M125.1,178.4c-39.6-13.1-74.7-35.9-102.5-65.5l14.4,14.3C7.1,99.5-15.8,64.5-29,25.2"/>
	</g>
</g>
<g id="layer_copy">
	<path class="st3" d="M136,101.6c-3.4-5.5-12.2-8-17.2-8.9c-9.1-1.8-20.8-1.6-26.5,2.6c-1.9,1.4-2.8,4.3-3,9.4c0,0.7,0,1.3,0,1.9
		c-9.6-3.7-18.5-9.3-26.1-16.3L59.8,87c-7.1-7.5-12.7-16.4-16.4-26c0.6,0,1.3,0,2,0c5.1-0.2,8-1.1,9.4-3c4.3-5.6,4.4-17.2,2.7-26.2
		c-1-5-3.4-13.9-9-17.2c-5.6-3.3-14.2-2.5-17.6-2c-7.1,1-13,3.5-15.8,6.7c-2.4,2.8-3.3,10.6-3.5,13.9c0,0.1,0,0.2,0,0.3
		c0.4,26.5,10.6,51.8,28.7,71.3c0,0,0,0.1,0.1,0.1l5.1,5.1c0,0,0.1,0.1,0.1,0.1c19.6,18,45,27.9,71.7,28.6c0,0,0,0,0,0
		c0.1,0,0.1-0.1,0.2-0.1c3.3-0.3,11.2-1.2,13.9-3.6c3.2-2.8,5.7-8.7,6.7-15.7C138.5,115.7,139.4,107.1,136,101.6z M132.6,118.3
		c-0.8,5.5-2.8,10.5-4.9,12.4c-1,0.8-5.9,1.8-10.6,2.2c-25.2-0.4-49.3-10-67.9-27.1l-5-5C27.1,82.4,17.4,58.4,17,33.4
		c0.4-4.7,1.4-9.6,2.2-10.6c1.9-2.1,6.9-4.1,12.5-4.9c5.9-0.9,11.2-0.4,14,1.3c2.7,1.6,5.1,6.8,6.4,13.6c1.7,8.9,1,18.2-1.6,21.8
		c-1.1,0.7-5.9,1.1-10.4,0.9c-0.5-0.1-1-0.1-1.5,0.1c-0.4,0.2-0.8,0.4-1.1,0.7c-0.4,0.4-0.7,1-0.8,1.7c0,0.6,0.1,1.1,0.4,1.6
		c3.8,11.1,9.8,21.3,17.7,30c0.1,0.1,0.2,0.3,0.3,0.4c0.8,0.9,1.6,1.7,2.5,2.5c0.8,0.8,1.7,1.7,2.6,2.5c0.1,0.1,0.3,0.2,0.4,0.3
		c8.8,7.8,19.1,13.9,30.2,17.6c0.5,0.3,1,0.4,1.6,0.4c0.7,0,1.3-0.3,1.7-0.8c0,0,0.1-0.1,0.1-0.1c0,0,0,0,0,0c0.2-0.3,0.4-0.6,0.6-1
		c0.2-0.5,0.2-1,0.1-1.5c-0.3-4.5,0.1-9.2,0.9-10.3c3.6-2.6,13.1-3.3,22.1-1.6c6.8,1.3,11.9,3.8,13.5,6.4
		C133,107.1,133.5,112.5,132.6,118.3z"/>
</g>
</svg>
