<?xml version="1.0" encoding="utf-8"?>
<!-- Generator: Adobe Illustrator 27.0.1, SVG Export Plug-In . SVG Version: 6.00 Build 0)  -->
<svg version="1.1" id="Capa_1" xmlns="http://www.w3.org/2000/svg" xmlns:xlink="http://www.w3.org/1999/xlink" x="0px" y="0px"
	 viewBox="0 0 150 150" style="enable-background:new 0 0 150 150;" xml:space="preserve">
<style type="text/css">
	.st0{fill:#9CA3AF;}
</style>
<path class="st0" d="M27,12c-8.2,0-15,6.8-15,15v96c0,8.2,6.8,15,15,15h50.5c0.3,0.1,0.7,0.1,1,0h17c0.3,0.1,0.7,0.1,1,0H123
	c8.2,0,15-6.8,15-15V27c0-8.2-6.8-15-15-15H27z M27,18h96c5,0,9,4,9,9v96c0,5-4,9-9,9H99V90h11.5l4.2-21H99v-6
	c0-1.7,0.2-1.8,0.7-2.2S102,60,105,60h9V43.1l-1.7-0.8c0,0-6.9-3.3-16.3-3.3c-6.8,0-12.3,2.7-15.8,7.1S75,56.5,75,63v6h-9v21h9v42
	H27c-5,0-9-4-9-9V27C18,22,22,18,27,18z M96,45c6.2,0,10.2,1.4,12,2.1V54h-3c-3.5,0-6.2,0.3-8.5,1.8C94.1,57.3,93,60.2,93,63v12
	h14.3l-1.8,9H93v48H81V84h-9v-9h9V63c0-5.5,1.4-10.1,3.8-13.1C87.3,46.8,90.8,45,96,45z"/>
</svg>
