<?xml version="1.0" encoding="utf-8"?>
<!-- Generator: Adobe Illustrator 27.0.1, SVG Export Plug-In . SVG Version: 6.00 Build 0)  -->
<svg version="1.1" id="Capa_1" xmlns="http://www.w3.org/2000/svg" xmlns:xlink="http://www.w3.org/1999/xlink" x="0px" y="0px"
	 viewBox="0 0 150 150" style="enable-background:new 0 0 150 150;" xml:space="preserve">
<style type="text/css">
	.st0{fill:#9CA3AF;}
</style>
<path class="st0" d="M48,9C26.5,9,9,26.5,9,48v54c0,21.5,17.5,39,39,39h54c21.5,0,39-17.5,39-39V48c0-21.5-17.5-39-39-39H48z M48,15
	h54c18.3,0,33,14.7,33,33v54c0,18.3-14.7,33-33,33H48c-18.3,0-33-14.7-33-33V48C15,29.7,29.7,15,48,15z M111,33c-3.3,0-6,2.7-6,6
	s2.7,6,6,6s6-2.7,6-6S114.3,33,111,33z M75,42c-18.2,0-33,14.8-33,33s14.8,33,33,33s33-14.8,33-33S93.2,42,75,42z M75,48
	c14.9,0,27,12.1,27,27s-12.1,27-27,27S48,89.9,48,75S60.1,48,75,48z"/>
</svg>
