<?xml version="1.0" encoding="utf-8"?>
<!-- Generator: Adobe Illustrator 26.0.2, SVG Export Plug-In . SVG Version: 6.00 Build 0)  -->
<svg version="1.1" xmlns="http://www.w3.org/2000/svg" xmlns:xlink="http://www.w3.org/1999/xlink" x="0px" y="0px"
	 viewBox="0 0 1240 1240" style="enable-background:new 0 0 1240 1240;" xml:space="preserve">
<style type="text/css">
	.st0{clip-path:url(#SVGID_00000036942300514890849890000014781845543009737917_);fill:url(#SVGID_1_);}
	
		.st1{clip-path:url(#SVGID_00000129167754392935273430000003091169960863275669_);fill:url(#SVGID_00000037672781581857661360000005143289765955967122_);}
	
		.st2{clip-path:url(#SVGID_00000119081140081829983010000006043490382441664144_);fill:url(#SVGID_00000129914471057460584300000009513604508419808676_);}
	
		.st3{clip-path:url(#SVGID_00000084497224843727018570000007899765207395780517_);fill:url(#SVGID_00000170243095613663485310000000743066087063765381_);}
	
		.st4{clip-path:url(#SVGID_00000160877470951339299090000014314138834584834211_);fill:url(#SVGID_00000177479871614457877590000001483971214361431228_);}
	
		.st5{clip-path:url(#SVGID_00000136412759929975032170000012114138563630512798_);fill:url(#SVGID_00000014615715171421278130000006648854543355335599_);}
	.st6{filter:url(#Adobe_OpacityMaskFilter);}
	.st7{fill:url(#SVGID_00000171697554920584132600000011777991191507801781_);}
	.st8{mask:url(#SVGID_00000179627321647201970560000000994161964878359215_);fill-rule:evenodd;clip-rule:evenodd;fill:#020C6A;}
	.st9{filter:url(#Adobe_OpacityMaskFilter_00000041273480666267105210000007477318780969538967_);}
	.st10{fill:url(#SVGID_00000108284091660822707400000016244013959943124887_);}
	.st11{mask:url(#SVGID_00000035508720779627931110000007191833044902316721_);fill-rule:evenodd;clip-rule:evenodd;fill:#99FFFF;}
	.st12{filter:url(#Adobe_OpacityMaskFilter_00000118391562305829637550000016141947842292711593_);}
	.st13{fill:url(#SVGID_00000097483299691926980000000014651470888568901005_);}
	.st14{mask:url(#SVGID_00000018218382223572313270000017983159177253698688_);fill-rule:evenodd;clip-rule:evenodd;fill:#8F0359;}
	.st15{filter:url(#Adobe_OpacityMaskFilter_00000006702276517589378730000010278596979922899894_);}
	.st16{fill:url(#SVGID_00000044162720515906365730000004216520064872684985_);}
	.st17{mask:url(#SVGID_00000134959075830262220850000017533390378958589325_);fill-rule:evenodd;clip-rule:evenodd;fill:#FEF7A2;}
	.st18{filter:url(#Adobe_OpacityMaskFilter_00000114764205148607270180000003371624223495558553_);}
	.st19{fill:url(#SVGID_00000030488663517382942290000016132577967147551135_);}
	.st20{mask:url(#SVGID_00000004538450711586004630000002124065609944629949_);fill-rule:evenodd;clip-rule:evenodd;fill:#330066;}
	.st21{filter:url(#Adobe_OpacityMaskFilter_00000159441663988571393770000011771585096905275800_);}
	.st22{fill:url(#SVGID_00000116917731276556354850000013168041622690633344_);}
	.st23{mask:url(#SVGID_00000102521623316235445050000014032638221338286005_);fill-rule:evenodd;clip-rule:evenodd;fill:#FFBCFE;}
	.st24{display:none;fill-rule:evenodd;clip-rule:evenodd;fill:#253536;}
	.st25{fill:none;}
	.st26{fill:#253536;}
	.st27{font-family:'Helvetica-Light';}
	.st28{font-size:190px;}
	.st29{font-family:'Helvetica-Bold';}
	.st30{font-size:52px;}
	.st31{letter-spacing:1;}
</style>
<g id="Layer_1">
	<g>
		<g>
			<defs>
				<path id="SVGID_31_" d="M947.2,409.6c0,0-23.6,106.9-145.1,128.6c0,0,100.2-184.9,9.2-308.7c0,0,55.2,19.8,58.3,24.7
					C872.8,259.2,923.4,285.7,947.2,409.6"/>
			</defs>
			<clipPath id="SVGID_00000114064669364017981980000000617190467793776780_">
				<use xlink:href="#SVGID_31_"  style="overflow:visible;"/>
			</clipPath>
			<linearGradient id="SVGID_1_" gradientUnits="userSpaceOnUse" x1="944.0234" y1="208.3337" x2="803.9106" y2="562.8164">
				<stop  offset="0" style="stop-color:#FF057E"/>
				<stop  offset="1" style="stop-color:#FFCC00"/>
			</linearGradient>
			
				<rect x="802.1" y="229.5" style="clip-path:url(#SVGID_00000114064669364017981980000000617190467793776780_);fill:url(#SVGID_1_);" width="145.1" height="308.7"/>
		</g>
		<g>
			<defs>
				<path id="SVGID_34_" d="M553.6,96.9C737,47.6,994.6,187.3,947.2,409.6C857.4,160.1,518.9,375.3,553.6,96.9"/>
			</defs>
			<clipPath id="SVGID_00000012465775269019999870000009140084227677741497_">
				<use xlink:href="#SVGID_34_"  style="overflow:visible;"/>
			</clipPath>
			
				<linearGradient id="SVGID_00000169541663657530799200000013730097366271967665_" gradientUnits="userSpaceOnUse" x1="189.3942" y1="-215.1904" x2="1025.8556" y2="439.1245">
				<stop  offset="0" style="stop-color:#FF057E"/>
				<stop  offset="1" style="stop-color:#FFCC00"/>
			</linearGradient>
			
				<rect x="518.9" y="47.6" style="clip-path:url(#SVGID_00000012465775269019999870000009140084227677741497_);fill:url(#SVGID_00000169541663657530799200000013730097366271967665_);" width="475.7" height="362"/>
		</g>
		<g>
			<defs>
				<path id="SVGID_37_" d="M427.3,210.6c0,0,104.3-33,183.9,61.3c0,0-210.2,5.7-272,146.4c0,0-10.5-57.7-7.7-62.9
					C334.2,350.2,331.8,293.1,427.3,210.6"/>
			</defs>
			<clipPath id="SVGID_00000178897077510470101150000009879964666517954982_">
				<use xlink:href="#SVGID_37_"  style="overflow:visible;"/>
			</clipPath>
			
				<linearGradient id="SVGID_00000152977367790731227840000007240591893811530404_" gradientUnits="userSpaceOnUse" x1="327.0714" y1="340.6057" x2="606.7683" y2="257.0787">
				<stop  offset="0" style="stop-color:#0049E7"/>
				<stop  offset="1" style="stop-color:#0ADAFF"/>
			</linearGradient>
			
				<rect x="328.8" y="177.5" style="clip-path:url(#SVGID_00000178897077510470101150000009879964666517954982_);fill:url(#SVGID_00000152977367790731227840000007240591893811530404_);" width="282.4" height="240.8"/>
		</g>
		<g>
			<defs>
				<path id="SVGID_40_" d="M514.8,760.3c0,0-80.8-73.8-38.9-189.9c0,0,110,179.2,262.8,162.3c0,0-44.7,37.9-50.6,38.2
					C682.3,771.1,634.1,801.7,514.8,760.3"/>
			</defs>
			<clipPath id="SVGID_00000023977596959506777210000013145426375924623252_">
				<use xlink:href="#SVGID_40_"  style="overflow:visible;"/>
			</clipPath>
			
				<linearGradient id="SVGID_00000173132103885059556700000017899984736031116438_" gradientUnits="userSpaceOnUse" x1="691.0797" y1="775.8342" x2="424.8675" y2="547.4532">
				<stop  offset="0" style="stop-color:#46008C"/>
				<stop  offset="0.53" style="stop-color:#9D15F8"/>
				<stop  offset="1" style="stop-color:#FF4CF9"/>
			</linearGradient>
			
				<rect x="434.1" y="570.4" style="clip-path:url(#SVGID_00000023977596959506777210000013145426375924623252_);fill:url(#SVGID_00000173132103885059556700000017899984736031116438_);" width="304.7" height="231.3"/>
		</g>
		<g>
			<defs>
				<path id="SVGID_2_" d="M982.4,575.9c-49,183.5-298.8,336.6-467.6,184.5C775.8,807.3,758.7,406.6,982.4,575.9"/>
			</defs>
			<clipPath id="SVGID_00000170994738015079831460000004353874612323139723_">
				<use xlink:href="#SVGID_2_"  style="overflow:visible;"/>
			</clipPath>
			
				<linearGradient id="SVGID_00000183929710756342192660000006418378904092259772_" gradientUnits="userSpaceOnUse" x1="1114.9794" y1="397.5098" x2="530.351" y2="815.6708">
				<stop  offset="0" style="stop-color:#46008C"/>
				<stop  offset="0.53" style="stop-color:#9D15F8"/>
				<stop  offset="1" style="stop-color:#FF4CF9"/>
			</linearGradient>
			
				<rect x="514.8" y="406.6" style="clip-path:url(#SVGID_00000170994738015079831460000004353874612323139723_);fill:url(#SVGID_00000183929710756342192660000006418378904092259772_);" width="467.6" height="505.9"/>
		</g>
		<g>
			<defs>
				<path id="SVGID_46_" d="M353.2,707.7c-134.4-134.1-142.2-427.1,74-497.2C256.1,413.1,611.7,598.6,353.2,707.7"/>
			</defs>
			<clipPath id="SVGID_00000073682274631526122020000007466947666846056069_">
				<use xlink:href="#SVGID_46_"  style="overflow:visible;"/>
			</clipPath>
			
				<linearGradient id="SVGID_00000062173607670129706530000011783852843347850141_" gradientUnits="userSpaceOnUse" x1="449.0412" y1="844.851" x2="380.596" y2="143.5413">
				<stop  offset="0" style="stop-color:#0049E7"/>
				<stop  offset="1" style="stop-color:#0ADAFF"/>
			</linearGradient>
			
				<rect x="211.1" y="210.6" style="clip-path:url(#SVGID_00000073682274631526122020000007466947666846056069_);fill:url(#SVGID_00000062173607670129706530000011783852843347850141_);" width="400.6" height="497.2"/>
		</g>
		<defs>
			<filter id="Adobe_OpacityMaskFilter" filterUnits="userSpaceOnUse" x="378.6" y="210.6" width="48.7" height="148.9">
				<feColorMatrix  type="matrix" values="1 0 0 0 0  0 1 0 0 0  0 0 1 0 0  0 0 0 1 0"/>
			</filter>
		</defs>
		
			<mask maskUnits="userSpaceOnUse" x="378.6" y="210.6" width="48.7" height="148.9" id="SVGID_00000104677346348032806200000007739852999735578242_">
			<g class="st6">
				
					<linearGradient id="SVGID_00000084488290096637597190000010119218612225403797_" gradientUnits="userSpaceOnUse" x1="-6403.3848" y1="4427.2197" x2="-6136.7056" y2="4422.6699" gradientTransform="matrix(1 0 0 1 6611.6797 -4138.8784)">
					<stop  offset="0" style="stop-color:#FFFFFF"/>
					<stop  offset="1" style="stop-color:#000000"/>
				</linearGradient>
				
					<rect x="378.6" y="210.6" style="fill:url(#SVGID_00000084488290096637597190000010119218612225403797_);" width="48.7" height="148.9"/>
			</g>
		</mask>
		
			<path style="mask:url(#SVGID_00000104677346348032806200000007739852999735578242_);fill-rule:evenodd;clip-rule:evenodd;fill:#020C6A;" d="
			M410.2,334.3c-10.7,7.5-20.9,15.8-30.3,25.1c-5.5-47.9,4.2-97.9,47.3-148.9C427.3,210.6,401,275.8,410.2,334.3"/>
		<defs>
			
				<filter id="Adobe_OpacityMaskFilter_00000158018933462643743130000006727399484998755218_" filterUnits="userSpaceOnUse" x="257.6" y="210.6" width="169.7" height="497.2">
				<feColorMatrix  type="matrix" values="1 0 0 0 0  0 1 0 0 0  0 0 1 0 0  0 0 0 1 0"/>
			</filter>
		</defs>
		
			<mask maskUnits="userSpaceOnUse" x="257.6" y="210.6" width="169.7" height="497.2" id="SVGID_00000096752272813929541600000000574214203369150084_">
			<g style="filter:url(#Adobe_OpacityMaskFilter_00000158018933462643743130000006727399484998755218_);">
				
					<linearGradient id="SVGID_00000023965601638766949530000009284140289522447526_" gradientUnits="userSpaceOnUse" x1="-6072.3682" y1="3331.4905" x2="-6040.5684" y2="4185.8872" gradientTransform="matrix(1 0 0 1 6391.2749 -3504.353)">
					<stop  offset="0" style="stop-color:#FFFFFF"/>
					<stop  offset="1" style="stop-color:#000000"/>
				</linearGradient>
				
					<rect x="257.6" y="210.6" style="fill:url(#SVGID_00000023965601638766949530000009284140289522447526_);" width="169.7" height="497.2"/>
			</g>
		</mask>
		
			<path style="mask:url(#SVGID_00000096752272813929541600000000574214203369150084_);fill-rule:evenodd;clip-rule:evenodd;fill:#99FFFF;" d="
			M353.2,707.7c-134.4-134.1-142.2-427.1,74-497.2c-19.6,23.2-32.3,46.3-39.8,69C176.3,413.3,353.2,707.7,353.2,707.7"/>
		<defs>
			
				<filter id="Adobe_OpacityMaskFilter_00000047038870443826029580000013212686463538008462_" filterUnits="userSpaceOnUse" x="841.9" y="294.2" width="105.3" height="115.4">
				<feColorMatrix  type="matrix" values="1 0 0 0 0  0 1 0 0 0  0 0 1 0 0  0 0 0 1 0"/>
			</filter>
		</defs>
		
			<mask maskUnits="userSpaceOnUse" x="841.9" y="294.2" width="105.3" height="115.4" id="SVGID_00000080194777808676911790000004466422012598632624_">
			<g style="filter:url(#Adobe_OpacityMaskFilter_00000047038870443826029580000013212686463538008462_);">
				
					<linearGradient id="SVGID_00000003793735031729196370000010256462604819586952_" gradientUnits="userSpaceOnUse" x1="-6466.5356" y1="4228.6196" x2="-6595.9341" y2="4461.8472" gradientTransform="matrix(1 0 0 1 7455.8252 -4047.5366)">
					<stop  offset="0" style="stop-color:#FFFFFF"/>
					<stop  offset="1" style="stop-color:#000000"/>
				</linearGradient>
				
					<rect x="841.9" y="294.2" style="fill:url(#SVGID_00000003793735031729196370000010256462604819586952_);" width="105.3" height="115.4"/>
			</g>
		</mask>
		
			<path style="mask:url(#SVGID_00000080194777808676911790000004466422012598632624_);fill-rule:evenodd;clip-rule:evenodd;fill:#8F0359;" d="
			M848.5,333c-1.1-13-3.2-26-6.6-38.8c44.3,19.2,82.7,52.5,105.3,115.4C947.2,409.6,903.8,354.2,848.5,333"/>
		<defs>
			
				<filter id="Adobe_OpacityMaskFilter_00000134234430029941082420000008499864837708049296_" filterUnits="userSpaceOnUse" x="553.6" y="87" width="399.3" height="322.6">
				<feColorMatrix  type="matrix" values="1 0 0 0 0  0 1 0 0 0  0 0 1 0 0  0 0 0 1 0"/>
			</filter>
		</defs>
		
			<mask maskUnits="userSpaceOnUse" x="553.6" y="87" width="399.3" height="322.6" id="SVGID_00000053517636583635914420000015146035916271407021_">
			<g style="filter:url(#Adobe_OpacityMaskFilter_00000134234430029941082420000008499864837708049296_);">
				
					<linearGradient id="SVGID_00000165925482566695927810000011340100842041920425_" gradientUnits="userSpaceOnUse" x1="-5616.9189" y1="4592.2188" x2="-6372.7471" y2="4192.5571" gradientTransform="matrix(1 0 0 1 6930.6582 -4047.5366)">
					<stop  offset="0" style="stop-color:#FFFFFF"/>
					<stop  offset="1" style="stop-color:#000000"/>
				</linearGradient>
				
					<rect x="553.6" y="87" style="fill:url(#SVGID_00000165925482566695927810000011340100842041920425_);" width="399.3" height="322.6"/>
			</g>
		</mask>
		
			<path style="mask:url(#SVGID_00000053517636583635914420000015146035916271407021_);fill-rule:evenodd;clip-rule:evenodd;fill:#FEF7A2;" d="
			M553.6,96.9C737,47.6,994.6,187.3,947.2,409.6c-10.3-28.6-23.9-51.1-39.8-68.9C897.1,90.9,553.6,96.9,553.6,96.9"/>
		<defs>
			
				<filter id="Adobe_OpacityMaskFilter_00000183212625249050281990000008934274686517035963_" filterUnits="userSpaceOnUse" x="514.8" y="713.2" width="152.6" height="51">
				<feColorMatrix  type="matrix" values="1 0 0 0 0  0 1 0 0 0  0 0 1 0 0  0 0 0 1 0"/>
			</filter>
		</defs>
		
			<mask maskUnits="userSpaceOnUse" x="514.8" y="713.2" width="152.6" height="51" id="SVGID_00000006667410157141032710000012177782461060059292_">
			<g style="filter:url(#Adobe_OpacityMaskFilter_00000183212625249050281990000008934274686517035963_);">
				
					<linearGradient id="SVGID_00000003809004251059195040000009951109376154110622_" gradientUnits="userSpaceOnUse" x1="-6166.1323" y1="4311.2246" x2="-6303.418" y2="4082.5527" gradientTransform="matrix(1 0 0 1 6859.9893 -3401.4443)">
					<stop  offset="0" style="stop-color:#FFFFFF"/>
					<stop  offset="1" style="stop-color:#000000"/>
				</linearGradient>
				
					<rect x="514.8" y="713.2" style="fill:url(#SVGID_00000003809004251059195040000009951109376154110622_);" width="152.6" height="51"/>
			</g>
		</mask>
		
			<path style="mask:url(#SVGID_00000006667410157141032710000012177782461060059292_);fill-rule:evenodd;clip-rule:evenodd;fill:#330066;" d="
			M630.5,713.2c11.8,5.5,24.1,10.2,36.9,13.7c-38.7,28.7-86.8,45.3-152.6,33.5C514.8,760.3,584.5,750.5,630.5,713.2"/>
		<defs>
			
				<filter id="Adobe_OpacityMaskFilter_00000070095223753845738050000015733630837283092398_" filterUnits="userSpaceOnUse" x="514.8" y="575.9" width="467.6" height="246.5">
				<feColorMatrix  type="matrix" values="1 0 0 0 0  0 1 0 0 0  0 0 1 0 0  0 0 0 1 0"/>
			</filter>
		</defs>
		
			<mask maskUnits="userSpaceOnUse" x="514.8" y="575.9" width="467.6" height="246.5" id="SVGID_00000044169984288173387640000014959219519235123365_">
			<g style="filter:url(#Adobe_OpacityMaskFilter_00000070095223753845738050000015733630837283092398_);">
				
					<linearGradient id="SVGID_00000072990397157603479660000011484385966204676499_" gradientUnits="userSpaceOnUse" x1="-6634.4688" y1="4323.063" x2="-5910.4341" y2="3868.3254" gradientTransform="matrix(1 0 0 1 6859.9893 -3295.3843)">
					<stop  offset="0" style="stop-color:#FFFFFF"/>
					<stop  offset="1" style="stop-color:#000000"/>
				</linearGradient>
				
					<rect x="514.8" y="575.9" style="fill:url(#SVGID_00000072990397157603479660000011484385966204676499_);" width="467.6" height="246.5"/>
			</g>
		</mask>
		
			<path style="mask:url(#SVGID_00000044169984288173387640000014959219519235123365_);fill-rule:evenodd;clip-rule:evenodd;fill:#FFBCFE;" d="
			M982.4,575.9c-49,183.5-298.8,336.6-467.6,184.5c29.9,5.4,56.2,4.8,79.6,0C815.9,876.3,982.4,575.9,982.4,575.9"/>
		<path class="st24" d="M1173,1065.3h36.4v-130h-38.3l-34.2,44l-34.2-44h-38.4v130h36.4V988l32.5,39.2h6.5l33.2-39.4V1065.3z
			 M1009.7,935.3v72.8c0,19.7-9.8,28.6-24.7,28.6c-14.9,0-24.7-8.5-24.7-29v-72.4h-36.6v72.4c0,39.8,23.2,60.4,61.3,60.4
			c38.1,0,61.5-21.5,61.3-60v-72.8H1009.7z M906.6,948.1c-13.9-11-29.2-15.4-48.6-15.4c-27.5,0-54.4,11.9-54.4,39.4
			c0,32.3,24.5,39.6,52.9,42.2c14.3,1.3,21.7,5.4,21.7,11.9c0,7.2-8.4,11.5-20.4,11.5c-11,0-25.3-2.2-38.1-14.7l-20.2,23.2
			c18,18.9,34.7,23,58.1,22.8c29.2-0.2,57-12.8,57-42.3c0-29.9-26.9-40.3-52.7-43.1c-12.8-1.3-21.5-2.6-21.5-11.5
			c0-6.9,8.7-9.7,17.6-9.7c11.3,0,21.5,2.2,30.5,8.9L906.6,948.1z M746.3,1030.2c34.7-0.4,52.2-21,52.2-47.5
			c0-25.4-17.3-47.3-52.2-47.3h-63.1v130H720v-35.1H746.3z M720,966.9h26.4c10,0,15.4,7.8,15.4,16.3c0,8.5-5.2,16-15.4,16H720V966.9
			z M663.3,1065.3v-130h-36.6v130H663.3z M594.8,1065.3h9.8V935.1h-12.3l-49.2,75.9l-49.8-75.9c-4.8,0-7.1,0-11.9,0v130.2h10V949.6
			l50.1,76.2h3.3l49.8-76.2V1065.3z M385,944.6h79.8v-9.5h-89.7v130.2h91.9v-9.7H385v-51.2h76.1v-9.1H385V944.6z M272.7,944.4h47.2
			c21.5,0,31.9,15.8,31.8,31.1c-0.2,18.3-10.2,31.1-32.9,31.1h-46V944.4z M320.4,1015.5c28.4,0,42.3-18.6,42.1-39.8
			c-0.2-20.3-14.5-40.6-42.7-40.6c-19.1,0-38.1,0-57.2,0v130.2h10v-49.2h35.5l44.9,49.2h13.2L320.4,1015.5z M181,942.5
			c37.3,0,55.9,27.7,55.9,57.7c0,29.3-18.8,57.9-55.9,57.9c-37,0-55.5-28.6-55.7-57.9C125.1,969.7,143.7,942.5,181,942.5z
			 M181,933.3c-43.8,0-65.5,31.9-65.5,66.8c0,34.4,21.9,67.4,65.5,67.4c43.6,0,65.4-32.9,65.5-67C246.8,965.4,224.8,933.3,181,933.3
			z M991.3,1152.1h32.5v-5.3h-27v-15.1h24.9v-5.2h-24.9v-14h25.9v-5.1h-31.4V1152.1z M929.2,1131h-14.5v-18.7h14.8
			c6.5,0,9.6,5,9.6,9.5C939.1,1126.8,935.9,1131,929.2,1131z M939.5,1152.1h7l-14.8-16.5c9.2-0.8,12.9-7.1,12.8-13.9
			c0-7.3-5-14.3-15.1-14.3h-20.3v44.7h5.6V1136h10.9L939.5,1152.1z M830.9,1152.1h32.5v-5.3h-27v-15.1h24.9v-5.2h-24.9v-14h25.9
			v-5.1h-31.4V1152.1z M776.8,1152.1h5.6v-44.7h-5.6v19.4h-25.6v-19.4h-5.6v44.7h5.6v-20.2h25.6V1152.1z M627.7,1107.4v44.7h5.5
			V1118l27.5,34.1h3.8v-44.7H659v34.2l-27.4-34.2H627.7z M571.4,1137.1h-21.2l10.6-24.1L571.4,1137.1z M557.7,1107.4l-20.1,44.7h6.1
			l4.3-9.8h25.6l4.4,9.8h6l-20.1-44.7H557.7z M496.2,1113.2c-4.5-4.5-10.5-6.7-16.4-6.7c-14.6,0-23.3,10.3-23.3,23.6
			c0,12,7.4,22.8,23.3,22.8c7.2,0,12.8-2.7,17.3-7.6v-17.7h-19v4.9h13.9v10.6c-3.7,3.2-8,4.5-12.2,4.5c-12.1,0-17.9-8.5-17.9-17.6
			c0-9.8,6.3-18.5,17.8-18.5c4.5,0,9.7,1.9,13.2,5.2L496.2,1113.2z M407.9,1129.8c0,8.8-5.3,17.9-17.1,17.9
			c-11.8,0-17.2-8.8-17.2-17.9c0-9.8,5.9-18.1,17.2-18.1C402.6,1111.8,408,1120.8,407.9,1129.8z M390.9,1106.6
			c-14.1,0-22.8,10.3-22.8,23.3c0,11.8,7.4,23.1,22.7,23.1c15.3,0,22.6-11.4,22.7-23.1C413.5,1118,406,1106.7,390.9,1106.6z
			 M304.4,1107.4h-5.6v44.7h29.9v-5.2h-24.3V1107.4z M247.8,1117.1l4.2-2.6c-4-6.8-10.3-8.1-16.9-8.1c-7.7,0-17.2,3.2-17.1,12.5
			c0,9.1,8.4,11.1,17,12.4c6.7,1,13,2.6,12.9,8.2c0,6.6-7.2,8.3-12.6,8.3c-5.5,0-11.5-2.6-14.4-7.9l-4.6,2.7
			c3.5,7.5,11,10.3,18.9,10.3c8.6,0,18.1-3.3,18.2-13.3c0-10.1-8.8-11.9-17.8-13.3c-6.6-1.1-12.1-2.5-12.1-7.3
			c0-5.4,6.1-7.7,11.8-7.7C240.2,1111.4,245.4,1113.2,247.8,1117.1z M30.6,935.1v130.2h83.2v-9.5H40.7V935.1H30.6z"/>
	</g>
</g>
<g id="Capa_2">
	<rect x="12.6" y="930.5" class="st25" width="1230.2" height="152.2"/>
	<text transform="matrix(1 0 0 1 12.5765 1067.3197)"><tspan x="0" y="0" class="st26 st27 st28">ODONTO</tspan><tspan x="825.7" y="0" class="st26 st29 st28">SED</tspan></text>
	<rect x="174.5" y="1102.3" class="st25" width="910.9" height="50.7"/>
	<text transform="matrix(1 0 0 1 174.4782 1139.7874)" class="st27 st30 st31">SERV. ODONTOLOGÍA Y SEDACIÓN</text>
</g>
</svg>
